<svg width="105" height="27" viewBox="0 0 105 27" fill="none" xmlns="http://www.w3.org/2000/svg">
<path d="M12.5511 4.91712L13.4394 0L0.921014 3.50998e-06L0 4.91712H3.71401L0.628985 22.0829H5.96038L9.0454 4.91712L12.5511 4.91712Z" fill="#16171A"/>
<path d="M10.8051 22.0829H16.0167L18.9095 6.13414H13.7372L10.8051 22.0829ZM13.9175 4.90731H19.046L20.1575 3.50998e-06H14.8194L13.9175 4.90731Z" fill="#16171A"/>
<path d="M25.019 22.3773C26.856 22.3773 28.3736 21.8964 29.5716 20.9346C30.7697 19.9531 31.4985 18.373 31.7581 16.1941H26.7262C26.6464 16.8026 26.4567 17.2737 26.1572 17.6074C25.8776 17.9411 25.4583 18.108 24.8992 18.108C24.3002 18.108 23.8808 17.9215 23.6412 17.5485C23.4016 17.1756 23.3317 16.7045 23.4316 16.1352L24.2103 11.7481C24.3301 11.1396 24.5198 10.7077 24.7794 10.4526C25.0589 10.1778 25.4383 10.0403 25.9175 10.0403C26.5365 10.0403 26.9659 10.2366 27.2055 10.6292C27.465 11.0218 27.5449 11.542 27.4451 12.1897H32.5069C32.6667 10.8353 32.477 9.68702 31.9378 8.74482C31.4187 7.78299 30.6399 7.04689 29.6016 6.53653C28.5633 6.02617 27.3353 6.13414 25.9175 6.13414C24.1604 6.13414 22.6528 6.23228 21.3948 7.15485C20.1568 8.07743 19.3382 9.61832 18.9388 11.7775L18.3697 15.0164C18.0502 17.2148 18.4596 18.9913 19.5977 20.3457C20.7359 21.7001 22.543 22.3773 25.019 22.3773Z" fill="#16171A"/>
<path d="M31.8807 22.0829H37.0923L37.6914 18.8441L39.5184 16.3413L40.6566 22.0829H46.0778L43.6517 12.7786L48.8376 6.13414H42.997L38.8595 12.2781L40.9988 3.50998e-06H35.7573L31.8807 22.0829Z" fill="#16171A"/>
<path d="M53.2291 22.0829C55.166 22.0829 56.7049 21.8866 57.7632 20.9051C58.8414 19.9237 59.3806 18.6576 59.3806 17.1069C59.3806 16.1254 59.1809 15.3206 58.7815 14.6925C58.4022 14.0643 57.9229 13.554 57.3439 13.1614C56.7648 12.7492 56.1957 12.4057 55.6366 12.1309C55.0775 11.8561 54.5783 11.5812 54.139 11.3064C53.6997 11.0316 53.4801 10.7077 53.4801 10.3348C53.4801 9.62813 53.8295 9.27481 54.5284 9.27481C54.8679 9.27481 55.1374 9.39258 55.3371 9.62814C55.5567 9.86369 55.6466 10.2563 55.6067 10.8059H60.339C60.359 9.68702 60.0994 8.75463 59.5603 8.00872C59.0211 7.26281 58.2823 6.70338 57.3439 6.33043C56.3491 6.13414 55.3571 6.13414 54.139 6.13414C52.3419 6.13414 50.8743 6.24209 49.796 7.1843C48.7178 8.10687 48.1786 9.36314 48.1786 10.9531C48.1786 11.8561 48.3983 12.6216 48.8376 13.2497C49.2769 13.8779 49.796 14.398 50.3951 14.8103C50.9941 15.2225 51.5332 15.5463 52.0125 15.7819C52.891 16.2137 53.4601 16.5671 53.7197 16.8419C53.9993 17.0971 54.139 17.3817 54.139 17.6957C54.139 18.0687 54.0292 18.3435 53.8096 18.5202C53.6099 18.6968 53.3503 18.7852 53.0308 18.7852C52.5716 18.7852 52.2321 18.6281 52.0125 18.3141C51.8128 17.9804 51.7529 17.5191 51.8328 16.9302H46.8608C46.8009 18.1276 47.0405 19.1287 47.5796 19.9335C48.1387 20.7383 48.9075 21.3468 49.8859 21.759C50.8843 22.1712 51.9711 22.0829 53.2291 22.0829Z" fill="#16171A"/>
<path d="M59.5376 22.0829H64.7492L66.5762 11.8659C66.6761 11.2966 66.8658 10.8451 67.1453 10.5115C67.4448 10.1778 67.9041 10.0109 68.5231 10.0109C69.222 10.0109 69.6712 10.2366 69.8709 10.6881C70.0706 11.12 70.1005 11.7186 69.9608 12.4842L68.2535 22.0829H73.4352L75.1723 12.3959C75.5717 10.1385 75.412 8.47001 74.6931 7.3904C73.9942 6.3108 72.8624 6.13414 71.3249 6.13414C70.5062 6.13414 69.7611 5.98691 69.0622 6.41876C68.3633 6.83097 67.8442 7.38059 67.5047 8.06761H67.1753L67.5011 6.13414H62.589L59.5376 22.0829Z" fill="#16171A"/>
<path d="M79.4368 22.0829C80.2555 22.0829 80.9689 22.1418 81.6279 21.7296C82.3068 21.2977 82.796 20.7383 83.0955 20.0513L83.3052 20.0807L82.9457 22.0829H88.1573L91.2128 6.13414H86.3007L85.3119 8.77426L85.0723 8.74482C84.9725 7.84188 84.633 7.12541 84.054 6.59542C83.4749 6.0458 82.6762 6.13414 81.4781 6.13414C80.1802 6.13414 79.0321 6.21265 78.2134 7.09597C77.4147 7.95965 76.8256 9.41221 76.4462 11.4537L75.6375 15.9291C75.358 17.4602 75.348 18.6968 75.6076 19.639C75.8672 20.5812 76.3264 21.2683 76.9854 21.7001C77.6643 22.1319 78.4983 22.0829 79.4368 22.0829ZM82.2569 18.3141C81.5779 18.3141 81.1387 18.0883 80.939 17.6369C80.7593 17.1854 80.7393 16.5867 80.8791 15.8408L81.4781 12.4253C81.5979 11.7775 81.7976 11.2475 82.0771 10.8353C82.3567 10.4231 82.776 10.217 83.3351 10.217C83.9741 10.217 84.3834 10.4231 84.5631 10.8353C84.7428 11.2279 84.7728 11.7579 84.653 12.4253L83.9042 16.6358C83.7844 17.2639 83.5747 17.7056 83.2752 17.9607C82.9957 18.1963 82.6562 18.3141 82.2569 18.3141Z" fill="#16171A"/>
<path d="M88.576 27H93.7875L95.1653 19.3446L95.4049 19.374C95.5048 20.277 95.8542 21.0033 96.4532 21.5529C97.0722 22.0829 97.861 22.0829 98.9991 22.0829C100.297 22.0829 101.435 21.916 102.234 21.0523C103.053 20.169 103.652 18.7066 104.031 16.6652L104.84 12.1897C105.179 9.8735 104.979 8.22465 104.241 7.24318C103.502 6.26172 102.07 6.13414 100.653 6.13414C99.8538 6.13414 99.4046 6.13414 98.8194 6.33043C98.1805 6.70338 97.7012 7.28244 97.3817 8.06761L97.1122 8.03817L97.4527 6.13414H92.5406L88.576 27ZM97.1421 17.9019C96.5231 17.9019 96.1138 17.7056 95.9141 17.313C95.7344 16.9008 95.7044 16.361 95.8243 15.6936L96.5431 11.7186C96.6829 10.9924 96.8925 10.4918 97.1721 10.217C97.4516 9.9422 97.8011 9.8048 98.2204 9.8048C98.8993 9.8048 99.3286 10.0305 99.5083 10.482C99.708 10.9335 99.7379 11.5322 99.5982 12.2781L98.9991 15.6936C98.8793 16.3413 98.6796 16.8713 98.4001 17.2835C98.1205 17.6957 97.7012 17.9019 97.1421 17.9019Z" fill="#16171A"/>
</svg>
